<svg width="33" height="21" viewBox="0 0 33 21" fill="none" xmlns="http://www.w3.org/2000/svg">
<path d="M1 15V12.5C1 9.73858 3.23858 7.5 6 7.5H9.75C11.5449 7.5 13 6.04493 13 4.25C13 2.45507 14.4551 1 16.25 1H22H27C29.7614 1 32 3.23858 32 6V15C32 17.7614 29.7614 20 27 20H6C3.23858 20 1 17.7614 1 15Z" fill="black" stroke="black"/>
<path d="M9.47159 15.5852C9.02273 15.5852 8.63636 15.4943 8.3125 15.3125C7.99053 15.1288 7.74242 14.8693 7.56818 14.5341C7.39394 14.197 7.30682 13.7983 7.30682 13.3381C7.30682 12.8892 7.39394 12.4953 7.56818 12.1562C7.74242 11.8172 7.98769 11.553 8.30398 11.3636C8.62216 11.1742 8.99527 11.0795 9.4233 11.0795C9.71117 11.0795 9.97917 11.1259 10.2273 11.2188C10.4773 11.3097 10.6951 11.447 10.8807 11.6307C11.0682 11.8144 11.214 12.0455 11.3182 12.3239C11.4223 12.6004 11.4744 12.9242 11.4744 13.2955V13.6278H7.78977V12.8778H10.3352C10.3352 12.7036 10.2973 12.5492 10.2216 12.4148C10.1458 12.2803 10.0407 12.1752 9.90625 12.0994C9.77367 12.0218 9.61932 11.983 9.44318 11.983C9.25947 11.983 9.09659 12.0256 8.95455 12.1108C8.81439 12.1941 8.70455 12.3068 8.625 12.4489C8.54545 12.589 8.50473 12.7453 8.50284 12.9176V13.6307C8.50284 13.8466 8.54261 14.0331 8.62216 14.1903C8.7036 14.3475 8.81818 14.4688 8.96591 14.554C9.11364 14.6392 9.28883 14.6818 9.49148 14.6818C9.62595 14.6818 9.74905 14.6629 9.8608 14.625C9.97254 14.5871 10.0682 14.5303 10.1477 14.4545C10.2273 14.3788 10.2879 14.286 10.3295 14.1761L11.4489 14.25C11.392 14.5189 11.2756 14.7538 11.0994 14.9545C10.9252 15.1534 10.6998 15.3087 10.4233 15.4205C10.1487 15.5303 9.83144 15.5852 9.47159 15.5852ZM13.4744 12.9773V15.5H12.2642V11.1364H13.4176V11.9062H13.4688C13.5653 11.6525 13.7273 11.4517 13.9545 11.304C14.1818 11.1544 14.4574 11.0795 14.7812 11.0795C15.0843 11.0795 15.3485 11.1458 15.5739 11.2784C15.7992 11.411 15.9744 11.6004 16.0994 11.8466C16.2244 12.0909 16.2869 12.3826 16.2869 12.7216V15.5H15.0767V12.9375C15.0786 12.6705 15.0104 12.4621 14.8722 12.3125C14.7339 12.161 14.5436 12.0852 14.3011 12.0852C14.1383 12.0852 13.9943 12.1203 13.8693 12.1903C13.7462 12.2604 13.6496 12.3627 13.5795 12.4972C13.5114 12.6297 13.4763 12.7898 13.4744 12.9773ZM19.5618 11.1364V12.0455H16.9339V11.1364H19.5618ZM17.5305 10.0909H18.7408V14.1591C18.7408 14.2708 18.7578 14.358 18.7919 14.4205C18.826 14.4811 18.8733 14.5237 18.9339 14.5483C18.9964 14.5729 19.0684 14.5852 19.1499 14.5852C19.2067 14.5852 19.2635 14.5805 19.3203 14.571C19.3771 14.5597 19.4207 14.5511 19.451 14.5455L19.6413 15.446C19.5807 15.465 19.4955 15.4867 19.3857 15.5114C19.2758 15.5379 19.1423 15.554 18.9851 15.5597C18.6934 15.571 18.4377 15.5322 18.218 15.4432C18.0002 15.3542 17.8307 15.2159 17.7095 15.0284C17.5883 14.8409 17.5286 14.6042 17.5305 14.3182V10.0909ZM22.2919 15.5852C21.843 15.5852 21.4567 15.4943 21.1328 15.3125C20.8108 15.1288 20.5627 14.8693 20.3885 14.5341C20.2143 14.197 20.1271 13.7983 20.1271 13.3381C20.1271 12.8892 20.2143 12.4953 20.3885 12.1562C20.5627 11.8172 20.808 11.553 21.1243 11.3636C21.4425 11.1742 21.8156 11.0795 22.2436 11.0795C22.5315 11.0795 22.7995 11.1259 23.0476 11.2188C23.2976 11.3097 23.5154 11.447 23.701 11.6307C23.8885 11.8144 24.0343 12.0455 24.1385 12.3239C24.2427 12.6004 24.2947 12.9242 24.2947 13.2955V13.6278H20.6101V12.8778H23.1555C23.1555 12.7036 23.1177 12.5492 23.0419 12.4148C22.9661 12.2803 22.861 12.1752 22.7266 12.0994C22.594 12.0218 22.4396 11.983 22.2635 11.983C22.0798 11.983 21.9169 12.0256 21.7749 12.1108C21.6347 12.1941 21.5249 12.3068 21.4453 12.4489C21.3658 12.589 21.325 12.7453 21.3232 12.9176V13.6307C21.3232 13.8466 21.3629 14.0331 21.4425 14.1903C21.5239 14.3475 21.6385 14.4688 21.7862 14.554C21.9339 14.6392 22.1091 14.6818 22.3118 14.6818C22.4463 14.6818 22.5694 14.6629 22.6811 14.625C22.7929 14.5871 22.8885 14.5303 22.968 14.4545C23.0476 14.3788 23.1082 14.286 23.1499 14.1761L24.2692 14.25C24.2124 14.5189 24.0959 14.7538 23.9197 14.9545C23.7455 15.1534 23.5201 15.3087 23.2436 15.4205C22.969 15.5303 22.6518 15.5852 22.2919 15.5852ZM25.0845 15.5V11.1364H26.2578V11.8977H26.3033C26.3828 11.6269 26.5163 11.4223 26.7038 11.2841C26.8913 11.1439 27.1072 11.0739 27.3516 11.0739C27.4122 11.0739 27.4775 11.0777 27.5476 11.0852C27.6177 11.0928 27.6792 11.1032 27.7322 11.1165V12.1903C27.6754 12.1733 27.5968 12.1581 27.4964 12.1449C27.3961 12.1316 27.3042 12.125 27.2209 12.125C27.0429 12.125 26.8838 12.1638 26.7436 12.2415C26.6054 12.3172 26.4955 12.4233 26.4141 12.5597C26.3345 12.696 26.2947 12.8532 26.2947 13.0312V15.5H25.0845Z" fill="white"/>
</svg>
